<svg id="eAB76wS2JDp1" xmlns="http://www.w3.org/2000/svg" xmlns:xlink="http://www.w3.org/1999/xlink" viewBox="0 0 300 300" shape-rendering="geometricPrecision" text-rendering="geometricPrecision"><defs><filter id="eAB76wS2JDp2-filter" x="-150%" width="400%" y="-150%" height="400%"><feComponentTransfer id="eAB76wS2JDp2-filter-contrast-0" result="result"><feFuncR id="eAB76wS2JDp2-filter-contrast-0-R" type="linear" slope="1" intercept="0"/><feFuncG id="eAB76wS2JDp2-filter-contrast-0-G" type="linear" slope="1" intercept="0"/><feFuncB id="eAB76wS2JDp2-filter-contrast-0-B" type="linear" slope="1" intercept="0"/></feComponentTransfer></filter><filter id="eAB76wS2JDp3-filter" x="-150%" width="400%" y="-150%" height="400%"><feComponentTransfer id="eAB76wS2JDp3-filter-contrast-0" result="result"><feFuncR id="eAB76wS2JDp3-filter-contrast-0-R" type="linear" slope="1" intercept="0"/><feFuncG id="eAB76wS2JDp3-filter-contrast-0-G" type="linear" slope="1" intercept="0"/><feFuncB id="eAB76wS2JDp3-filter-contrast-0-B" type="linear" slope="1" intercept="0"/></feComponentTransfer></filter><linearGradient id="eAB76wS2JDp3-stroke" x1="0" y1="0.5" x2="1" y2="0.5" spreadMethod="pad" gradientUnits="objectBoundingBox" gradientTransform="translate(0 0)"><stop id="eAB76wS2JDp3-stroke-0" offset="0%" stop-color="rgba(255,255,255,0.99)"/><stop id="eAB76wS2JDp3-stroke-1" offset="100%" stop-color="#9a57e6"/></linearGradient></defs><polygon points="0,-57.105307 5.02518,-18.754227 28.552654,-49.454647 13.729047,-13.729047 49.454647,-28.552653 18.754227,-5.02518 57.105308,0 18.754227,5.02518 49.454647,28.552654 13.729047,13.729048 28.552654,49.454647 5.02518,18.754228 0,57.105308 -5.02518,18.754228 -28.552654,49.454647 -13.729047,13.729048 -49.454647,28.552654 -18.754227,5.02518 -57.105308,0 -18.754227,-5.02518 -49.454647,-28.552653 -13.729047,-13.729047 -28.552654,-49.454647 -5.02518,-18.754227 0,-57.105307" transform="matrix(2.6 0 0 2.47 150.000001 144.546928)" filter="url(#eAB76wS2JDp2-filter)" fill="#e6e6e6" stroke-width="0"/><polygon points="0,-57.105307 6.118911,-14.772359 40.37955,-40.37955 14.772359,-6.118911 57.105307,0 14.772359,6.118911 40.37955,40.37955 6.118911,14.772359 0,57.105307 -6.118911,14.772359 -40.37955,40.37955 -14.772359,6.118911 -57.105307,0 -14.772359,-6.118911 -40.37955,-40.37955 -6.118911,-14.772359 0,-57.105307" transform="matrix(2.5 0 0 2.5 150 150)" filter="url(#eAB76wS2JDp3-filter)" fill="#845ce6" stroke="url(#eAB76wS2JDp3-stroke)" stroke-width="1.5" stroke-opacity="0.8"/></svg>
